<svg width="119" height="78" viewBox="0 0 119 78" fill="none" xmlns="http://www.w3.org/2000/svg">
<path d="M16.4596 73.2246C16.4596 73.8368 16.3438 74.4083 16.1123 74.9389C15.8807 75.4695 15.5624 75.9348 15.1572 76.3348C14.7603 76.7348 14.2889 77.0491 13.7432 77.2776C13.2057 77.5062 12.631 77.6205 12.0191 77.6205H1.86054V75.1103H12.0191C12.2754 75.1103 12.5194 75.0613 12.7509 74.9634C12.9824 74.8654 13.185 74.7307 13.3587 74.5593C13.5323 74.3879 13.6688 74.1879 13.768 73.9593C13.8672 73.7307 13.9168 73.4858 13.9168 73.2246V72.6001H6.9336C5.97439 72.6001 5.07307 72.4205 4.22962 72.0613C3.38618 71.694 2.65023 71.2001 2.02178 70.5797C1.40161 69.9511 0.909596 69.2205 0.545758 68.3879C0.181919 67.5471 0 66.6532 0 65.7063V58.8124H2.54274V65.7063C2.54274 66.3104 2.65437 66.8777 2.87763 67.4083C3.10917 67.9308 3.42339 68.392 3.8203 68.792C4.21722 69.1838 4.68029 69.4981 5.20951 69.7348C5.74699 69.9634 6.32169 70.0818 6.9336 70.0899H8.91682C11.6782 70.0899 13.9168 67.8513 13.9168 65.0899V58.8124H16.4596V73.2246Z" fill="white"/>
<path d="M36.0324 72.6001H23.3311C22.711 72.6001 22.1321 72.4858 21.5946 72.2573C21.0572 72.0287 20.5858 71.7185 20.1806 71.3267C19.7754 70.9267 19.4571 70.4614 19.2256 69.9307C18.994 69.392 18.8783 68.8205 18.8783 68.2165C18.8783 67.6042 18.994 67.0328 19.2256 66.5022C19.4571 65.9716 19.7754 65.5063 20.1806 65.1063C20.5858 64.7063 21.0572 64.392 21.5946 64.1634C22.1321 63.9349 22.711 63.8206 23.3311 63.8206H32.2121V66.3308H23.3311C23.0665 66.3308 22.8185 66.3838 22.5869 66.4899C22.3554 66.5879 22.1528 66.7226 21.9792 66.894C21.8055 67.0654 21.6691 67.2654 21.5698 67.494C21.4706 67.7226 21.421 67.9634 21.421 68.2165C21.421 68.4777 21.4706 68.7226 21.5698 68.9512C21.6691 69.1716 21.8055 69.3675 21.9792 69.5389C22.1528 69.7103 22.3554 69.845 22.5869 69.943C22.8185 70.0409 23.0665 70.0899 23.3311 70.0899H33.4897V63.1961C33.4897 62.943 33.4359 62.7022 33.3284 62.4736C33.2292 62.2451 33.0928 62.0451 32.9191 61.8736C32.7455 61.7022 32.5429 61.5675 32.3113 61.4696C32.0798 61.3634 31.8359 61.3104 31.5795 61.3104H21.421V58.8124H31.5795C32.1997 58.8124 32.7785 58.9267 33.316 59.1553C33.8535 59.3839 34.3249 59.6981 34.73 60.0981C35.1352 60.49 35.4536 60.9512 35.6851 61.4818C35.9166 62.0124 36.0324 62.5838 36.0324 63.1961V72.6001Z" fill="white"/>
<path d="M42.135 72.6001H39.5922V58.8124H49.1182C50.0774 58.8124 50.9787 58.9961 51.8222 59.3634C52.6656 59.7226 53.4016 60.2165 54.03 60.8451C54.6585 61.4655 55.1546 62.1961 55.5185 63.0369C55.8823 63.8695 56.0642 64.7593 56.0642 65.7063V72.6001H53.5215V65.7063C53.5215 65.1022 53.4057 64.5348 53.1742 64.0042C52.9426 63.4736 52.6284 63.0124 52.2315 62.6206C51.8346 62.2206 51.3674 61.9063 50.8299 61.6777C50.3007 61.441 49.7301 61.3185 49.1182 61.3104H42.135V72.6001Z" fill="white"/>
<path d="M80.7598 63.8206C80.7598 65.0369 80.5613 66.1797 80.1644 67.2491C79.7757 68.3185 79.2217 69.2491 78.5023 70.0409C77.7829 70.8328 76.9188 71.4573 75.9099 71.9144C74.9094 72.3715 73.7972 72.6001 72.5734 72.6001H63.6056V70.0899H72.5734C73.4499 70.0899 74.2355 69.9267 74.9301 69.6001C75.6329 69.2736 76.2242 68.8287 76.7038 68.2654C77.1917 67.694 77.5638 67.0287 77.8201 66.2695C78.0847 65.5022 78.217 64.6859 78.217 63.8206C78.217 62.9553 78.0847 62.143 77.8201 61.3838C77.5638 60.6247 77.1917 59.9634 76.7038 59.4002C76.2242 58.8288 75.6329 58.3798 74.9301 58.0532C74.2355 57.7186 73.4499 57.5512 72.5734 57.5512H67.3404C64.579 57.5512 62.3404 59.7898 62.3404 62.5512V72.6001H59.7977V55.041H72.5734C73.7972 55.041 74.9094 55.2737 75.9099 55.739C76.9188 56.1961 77.7829 56.8247 78.5023 57.6247C79.2217 58.4165 79.7757 59.3471 80.1644 60.4165C80.5613 61.4777 80.7598 62.6124 80.7598 63.8206Z" fill="white"/>
<path d="M99.9605 63.1961C99.9605 63.8083 99.8447 64.3797 99.6132 64.9104C99.3817 65.441 99.0633 65.9063 98.6581 66.3063C98.2612 66.6981 97.7899 67.0083 97.2441 67.2369C96.7066 67.4654 96.1319 67.5797 95.52 67.5797H85.7832C85.9651 67.9471 86.1925 68.2859 86.4654 68.5961C86.7383 68.9063 87.0442 69.1716 87.3833 69.392C87.7223 69.6124 88.0903 69.7838 88.4872 69.9063C88.8924 70.0287 89.3141 70.0899 89.7523 70.0899H98.0628V72.6001H89.7523C88.7931 72.592 87.8918 72.4083 87.0484 72.0491C86.2049 71.6818 85.469 71.1879 84.8405 70.5675C84.2204 69.9389 83.7283 69.2083 83.3645 68.3756C83.0007 67.543 82.8187 66.6532 82.8187 65.7063C82.8187 64.7593 83.0007 63.8695 83.3645 63.0369C83.7283 62.2042 84.2204 61.4777 84.8405 60.8573C85.469 60.2287 86.2049 59.7349 87.0484 59.3757C87.8918 59.0083 88.7931 58.8206 89.7523 58.8124H95.52C96.1319 58.8124 96.7066 58.9267 97.2441 59.1553C97.7899 59.3839 98.2612 59.6981 98.6581 60.0981C99.0633 60.49 99.3817 60.9512 99.6132 61.4818C99.8447 62.0124 99.9605 62.5838 99.9605 63.1961ZM95.52 65.0818C95.7764 65.0818 96.0203 65.0328 96.2518 64.9348C96.4834 64.8369 96.686 64.7022 96.8596 64.5308C97.0333 64.3593 97.1697 64.1593 97.2689 63.9308C97.3681 63.7022 97.4178 63.4573 97.4178 63.1961C97.4178 62.943 97.3681 62.7022 97.2689 62.4736C97.1697 62.2451 97.0333 62.0451 96.8596 61.8736C96.686 61.7022 96.4834 61.5675 96.2518 61.4696C96.0203 61.3634 95.7764 61.3104 95.52 61.3104H89.7523C89.1901 61.3104 88.6608 61.4083 88.1647 61.6043C87.6768 61.8002 87.2386 62.0696 86.8499 62.4124C86.4695 62.7471 86.1512 63.1471 85.8948 63.6124C85.6468 64.0695 85.4855 64.5593 85.4111 65.0818H95.52Z" fill="white"/>
<path d="M119 58.8124L111.285 72.6001H108.383L100.717 58.8124H103.682L109.834 69.992L116.036 58.8124H119Z" fill="white"/>
<path d="M57.705 35.7336C57.705 37.7343 57.2291 39.6071 56.2772 41.3519C55.3485 43.0734 54.0716 44.5856 52.4464 45.8884C50.8445 47.1679 48.9639 48.1799 46.8048 48.9243C44.6456 49.6688 42.3356 50.041 39.8746 50.041H0V42.8873H39.8746C41.3373 42.8873 42.7186 42.7012 44.0188 42.329C45.3189 41.9568 46.4449 41.4449 47.3968 40.7936C48.3719 40.1422 49.1381 39.3861 49.6953 38.5253C50.2757 37.6413 50.5659 36.7107 50.5659 35.7336C50.5659 33.7678 48.9723 32.1742 47.0065 32.1742H17.8304C15.3694 32.1742 13.0478 31.7089 10.8654 30.7784C8.70625 29.8478 6.81409 28.5799 5.18892 26.9747C3.58697 25.3462 2.32167 23.4502 1.393 21.2866C0.464333 19.0998 0 16.7734 0 14.3074V0H7.13912V14.3074C7.13912 15.7963 7.41772 17.1922 7.97492 18.4949C8.53212 19.7977 9.28666 20.9377 10.2385 21.9148C11.2136 22.8686 12.3513 23.6247 13.6514 24.183C14.9515 24.7413 16.3445 25.0205 17.8304 25.0205H40.5659C46.0887 25.0205 50.5659 20.5434 50.5659 15.0205V0H57.705V35.7336Z" fill="white"/>
<path d="M117.779 25.0205C117.779 28.4869 117.222 31.7438 116.108 34.7914C115.017 37.839 113.461 40.4911 111.441 42.7477C109.421 45.0043 106.995 46.784 104.163 48.0868C101.354 49.3896 98.2311 50.041 94.795 50.041H69.6165V42.8873H94.795C97.256 42.8873 99.4615 42.422 101.412 41.4915C103.385 40.5609 105.045 39.293 106.392 37.6878C107.761 36.0593 108.806 34.1633 109.526 31.9997C110.269 29.8129 110.64 27.4865 110.64 25.0205C110.64 22.5545 110.269 20.2397 109.526 18.0762C108.806 15.9126 107.761 14.0282 106.392 12.423C105.045 10.7945 103.385 9.51501 101.412 8.58444C99.4615 7.63062 97.256 7.1537 94.795 7.1537H76.0644C70.5415 7.1537 66.0644 11.6309 66.0644 17.1537V50.041H58.9253V0H94.795C98.2311 0 101.354 0.663026 104.163 1.98908C106.995 3.29187 109.421 5.0832 111.441 7.36308C113.461 9.61969 115.017 12.2718 116.108 15.3194C117.222 18.3437 117.779 21.5774 117.779 25.0205Z" fill="white"/>
<path d="M80.496 18.2034L72.4352 25.4245L80.4713 32.4844H77.1528L70.1816 26.3923C70.0413 26.2765 69.934 26.1359 69.8597 25.9705C69.7854 25.805 69.7483 25.6313 69.7483 25.4493C69.7483 25.0688 69.8927 24.7463 70.1816 24.4816L77.2023 18.2034H80.496Z" fill="white"/>
<path d="M94.7851 16.1685L85.4613 33.9609H82.5639L91.9 16.1685H94.7851Z" fill="white"/>
<path d="M100.097 18.2034L107.118 24.4816C107.407 24.7463 107.551 25.0688 107.551 25.4493C107.551 25.6313 107.514 25.805 107.44 25.9705C107.365 26.1359 107.258 26.2765 107.118 26.3923L100.147 32.4844H96.8282L104.864 25.4245L96.8034 18.2034H100.097Z" fill="white"/>
</svg>
